<svg height="479pt" viewBox="-56 0 479 479.99887" width="479pt" xmlns="http://www.w3.org/2000/svg"><path d="m365.558594 73.808594-74.664063-61.105469c-10.011719-8.21875-22.566406-12.7109375-35.519531-12.703125h-141.761719c-12.929687.00390625-25.464843 4.484375-35.460937 12.6875l-74.722656 61.121094c-1.664063 1.363281-2.710938 3.339844-2.898438 5.484375-.191406 2.144531.492188 4.273437 1.890625 5.90625l48 56c1.402344 1.636719 3.40625 2.640625 5.554687 2.777343 2.152344.140626 4.265626-.589843 5.871094-2.03125l26.648438-24v130.054688c0 4.417969 3.578125 8 8 8h176c4.417968 0 8-3.582031 8-8v-130.039062l26.644531 24c1.609375 1.429687 3.71875 2.164062 5.867187 2.039062 2.164063-.128906 4.1875-1.132812 5.597657-2.785156l48-56c1.402343-1.632813 2.082031-3.761719 1.894531-5.90625-.191406-2.144532-1.238281-4.121094-2.902344-5.484375zm-142.328125-57.808594c-6.535157 15.390625-22.046875 25-38.734375 24-16.691406 1-32.203125-8.609375-38.738282-24zm88.519531 108.566406-33.902344-30.511718c-2.347656-2.113282-5.722656-2.644532-8.605468-1.359376-2.886719 1.28125-4.746094 4.144532-4.746094 7.304688v140h-160v-140c-.003906-3.160156-1.863282-6.023438-4.75-7.304688-2.882813-1.285156-6.253906-.753906-8.605469 1.359376l-33.902344 30.511718-37.34375-43.558594 68.398438-55.945312c7.140625-5.855469 16.085937-9.0625 25.320312-9.0625h15.722657c4.46875 22.664062 27.46875 40 55.199218 40 27.726563 0 50.695313-17.335938 55.199219-40h15.640625c9.242188.003906 18.195312 3.210938 25.335938 9.078125l68.382812 55.929687zm0 0"/><path d="m280.496094 310.847656v-30.847656c0-4.417969-3.582032-8-8-8h-176c-4.421875 0-8 3.582031-8 8v30.847656l-39.671875 134.894532c-.617188 2.09375-.351563 4.34375.730469 6.230468 1.082031 1.890625 2.890624 3.257813 5.003906 3.789063l96 24c3.636718.90625 7.417968-.832031 9.097656-4.1875l24.839844-49.6875 24.796875 49.6875c1.679687 3.355469 5.460937 5.09375 9.097656 4.1875l96-24c2.113281-.53125 3.917969-1.898438 5.003906-3.789063 1.082031-1.886718 1.347657-4.136718.730469-6.230468zm-16-22.847656v16h-160v-16zm-116.289063 174.679688-81.6875-20.421876 4.839844-16.464843 85.429687 19.71875zm36.289063-62.679688c-3.035156 0-5.804688 1.710938-7.160156 4.425781l-13.183594 26.398438-88.265625-20.425781 26.589843-90.398438h164l26.59375 90.398438-88.230468 20.386718-13.183594-26.402344c-1.367188-2.695312-4.136719-4.390624-7.160156-4.382812zm36.285156 62.679688-8.582031-17.167969 85.429687-19.71875 4.800782 16.464843zm0 0"/><path d="m216.496094 72c-17.675782 0-32 14.328125-32 32s14.324218 32 32 32c17.671875 0 32-14.328125 32-32s-14.328125-32-32-32zm0 48c-8.839844 0-16-7.164062-16-16s7.160156-16 16-16c8.835937 0 16 7.164062 16 16s-7.164063 16-16 16zm0 0"/></svg>