<?xml version="1.0" encoding="iso-8859-1"?>
<!-- Generator: Adobe Illustrator 19.0.0, SVG Export Plug-In . SVG Version: 6.00 Build 0)  -->
<svg version="1.1" id="Capa_1" xmlns="http://www.w3.org/2000/svg" xmlns:xlink="http://www.w3.org/1999/xlink" x="0px" y="0px"
	 viewBox="0 0 512 512" style="enable-background:new 0 0 512 512;" xml:space="preserve">
<g>
	<g>
		<path d="M504.5,368.8h-35.983c-0.4,0-0.726-0.326-0.726-0.726v-97.728c0-0.4,0.326-0.726,0.726-0.726H504.5
			c4.142,0,7.5-3.358,7.5-7.5c0-4.142-3.358-7.5-7.5-7.5h-35.983c-8.671,0-15.726,7.055-15.726,15.726v1.533h-7.892
			c-1.404-10.276-7.001-19.639-15.585-25.706l-33.538-23.702c-3.597-2.543-7.826-3.887-12.231-3.887h-8.264
			c-4.142,0-7.5,3.358-7.5,7.5c0,4.142,3.358,7.5,7.5,7.5h8.264c1.287,0,2.522,0.393,3.573,1.136l33.539,23.703
			c6.012,4.249,9.601,11.18,9.601,18.542v21.115c0,4.142,3.358,7.5,7.5,7.5c4.142,0,7.5-3.358,7.5-7.5V286.88h7.534v64.66H442.47
			c-6.733,0-12.21,5.478-12.21,12.21c0,1.328-0.516,2.573-1.463,3.517c-0.944,0.944-2.196,1.463-3.527,1.463h-64.619
			c1.06-2.685,1.65-5.606,1.65-8.664c0-9.015-5.068-16.866-12.503-20.86c1.93-3.467,2.962-7.385,2.962-11.466
			c0-8.233-4.226-15.494-10.618-19.736c4.999-5.739,8.176-13.105,8.616-21.188c6.646,21.488,26.701,37.144,50.343,37.144
			c4.142,0,7.5-3.358,7.5-7.5c0-4.142-3.358-7.5-7.5-7.5c-20.777,0-37.68-16.903-37.68-37.68v-2.81c0-7.615-6.195-13.81-13.81-13.81
			c-3.68,0-7.144,1.437-9.753,4.046c-2.61,2.609-4.047,6.077-4.047,9.764v16.41c0,11.166-9.084,20.25-20.25,20.25
			c-0.292,0-0.501-0.081-0.625-0.148c-0.033-0.018-0.065-0.035-0.099-0.053c-0.086-0.045-0.168-0.106-0.3-0.24
			c-0.186-0.184-0.407-0.507-0.407-1v-24.45v-32.82c0-7.075,5.755-12.83,12.83-12.83h17.19c4.142,0,7.5-3.358,7.5-7.5
			c0-4.142-3.358-7.5-7.5-7.5h-17.19c-12.925,0-23.819,8.857-26.935,20.82H287.49c-6.333,0-12.278,2.467-16.733,6.937
			c-4.467,4.467-6.927,10.409-6.927,16.733c0,5.261,1.728,10.125,4.643,14.059c-0.58,0.48-1.14,0.989-1.678,1.529
			c-4.479,4.464-6.945,10.41-6.945,16.742c0,9.509,5.645,17.721,13.758,21.477c-1.715,3.313-2.628,7.01-2.628,10.853
			c0,9.016,5.073,16.868,12.514,20.86c-1.891,3.399-2.973,7.308-2.973,11.466c0,13.049,10.616,23.665,23.665,23.665h34.45
			c0.019,0,0.038-0.001,0.058-0.001h86.576c5.337,0,10.356-2.08,14.122-5.845c3.117-3.104,5.081-7.058,5.676-11.345h7.724v1.535
			c0,8.671,7.055,15.726,15.726,15.726H504.5c4.142,0,7.5-3.358,7.5-7.5C512,372.157,508.642,368.8,504.5,368.8z M281.372,256.943
			c1.629-1.634,3.802-2.534,6.118-2.534h11.64v17.33h-11.64c-4.775,0-8.66-3.885-8.66-8.66
			C278.83,260.763,279.73,258.586,281.372,256.943z M274.85,295.409c0-2.316,0.9-4.489,2.552-6.136
			c1.628-1.634,3.801-2.534,6.118-2.534h3.97h11.64v16.95c0,0.127,0.001,0.253,0.004,0.38h-4.484h-11.13
			C278.739,304.07,274.85,300.185,274.85,295.409z M285.981,327.739c-0.001-2.315,0.899-4.488,2.552-6.135
			c1.628-1.634,3.801-2.534,6.117-2.534h15.116c1.839,0.695,3.808,1.06,5.795,1.06c2.962,0,5.839-0.369,8.589-1.06h4.951
			c4.775,0,8.66,3.89,8.66,8.67c0,2.31-0.9,4.479-2.552,6.125c-1.629,1.634-3.798,2.534-6.108,2.534h-34.45
			C289.87,336.398,285.981,332.513,285.981,327.739z M338.665,368.729H309.49c-0.01,0-0.019,0.001-0.029,0.001h-5.276
			c-4.777,0-8.664-3.887-8.664-8.665c0-4.778,3.887-8.665,8.665-8.665h34.45c4.778,0,8.665,3.887,8.665,8.665
			C347.301,364.833,343.429,368.714,338.665,368.729z"/>
	</g>
</g>
<g>
	<g>
		<path d="M252.15,295.405c0-7.341-3.361-13.913-8.625-18.257c2.92-3.936,4.649-8.806,4.649-14.072
			c0-13.049-10.616-23.665-23.665-23.665c-7.602,0-14.291,0-21.869,0c-3.116-11.966-14.014-20.825-26.941-20.825h-47.245
			c-4.404,0-8.633,1.344-12.23,3.886l-33.539,23.703c-8.585,6.068-14.195,15.43-15.598,25.708h-7.879v-1.535
			c0-8.671-7.055-15.726-15.726-15.726H7.5c-4.142,0-7.5,3.358-7.5,7.5c0,4.142,3.358,7.5,7.5,7.5h35.983
			c0.4,0,0.726,0.326,0.726,0.726c0,103.847,0.402,98.454-0.726,98.454H7.5c-4.142,0-7.5,3.358-7.5,7.5c0,4.142,3.358,7.5,7.5,7.5
			h35.983c8.671,0,15.726-7.055,15.726-15.726v-1.535h7.729c1.362,9.701,9.717,17.191,19.788,17.191h22.243
			c4.142,0,7.5-3.358,7.5-7.5c0-4.142-3.358-7.5-7.5-7.5H86.725c-2.748,0-4.982-2.235-4.982-4.983
			c0-6.731-5.477-12.208-12.208-12.208H59.208v-64.659h15.034c4.142,0,7.5-3.358,7.5-7.5v-2.417c0-7.362,3.589-14.293,9.601-18.542
			l33.539-23.703c1.051-0.743,2.287-1.136,3.573-1.136H175.7c4.491,0,8.444,2.323,10.738,5.825h-22.782c-4.142,0-7.5,3.358-7.5,7.5
			c0,4.142,3.358,7.5,7.5,7.5c23.588,0,38.715,0,60.854,0c4.778,0,8.665,3.887,8.665,8.665s-3.887,8.665-8.665,8.665
			c-4.142,0-7.5,3.358-7.5,7.5c0,4.142,3.358,7.5,7.5,7.5h3.975c4.778,0,8.666,3.887,8.666,8.665s-3.887,8.665-8.666,8.665h-11.13
			c-4.142,0-7.5,3.358-7.5,7.5c0,4.142,3.358,7.5,7.5,7.5c4.778,0,8.665,3.887,8.665,8.665s-3.887,8.666-8.665,8.666h-9.54
			c-4.142,0-7.5,3.358-7.5,7.5c0,4.142,3.358,7.5,7.5,7.5c4.778,0,8.665,3.887,8.665,8.665s-3.887,8.665-8.665,8.665h-67.719
			c-4.142,0-7.5,3.358-7.5,7.5c0,4.142,3.358,7.5,7.5,7.5h67.719c13.049,0,23.665-10.616,23.665-23.665
			c0-4.157-1.077-8.066-2.967-11.464c7.438-3.994,12.507-11.85,12.507-20.866c0-3.903-0.95-7.589-2.631-10.838
			C246.506,313.142,252.15,304.92,252.15,295.405z"/>
	</g>
</g>
<g>
	<g>
		<path d="M256,128.198c-4.142,0-7.5,3.358-7.5,7.5v57.586c0,4.142,3.358,7.5,7.5,7.5c4.142,0,7.5-3.358,7.5-7.5v-57.586
			C263.5,131.557,260.142,128.198,256,128.198z"/>
	</g>
</g>
<g>
	<g>
		<path d="M227.921,204.227l-28.793-49.871c-2.071-3.587-6.659-4.817-10.245-2.745c-3.587,2.071-4.816,6.658-2.745,10.245
			l28.793,49.871c1.389,2.406,3.91,3.751,6.502,3.751c1.272,0,2.562-0.324,3.743-1.006
			C228.763,212.401,229.992,207.814,227.921,204.227z"/>
	</g>
</g>
<g>
	<g>
		<path d="M323.117,151.61c-3.588-2.072-8.174-0.843-10.245,2.745l-28.793,49.871c-2.072,3.587-0.843,8.174,2.745,10.245
			c1.181,0.682,2.471,1.006,3.743,1.006c2.592,0,5.113-1.346,6.502-3.751l28.793-49.871
			C327.933,158.268,326.704,153.682,323.117,151.61z"/>
	</g>
</g>
<g>
</g>
<g>
</g>
<g>
</g>
<g>
</g>
<g>
</g>
<g>
</g>
<g>
</g>
<g>
</g>
<g>
</g>
<g>
</g>
<g>
</g>
<g>
</g>
<g>
</g>
<g>
</g>
<g>
</g>
</svg>
