<svg id="Capa_1" enable-background="new 0 0 512 512" height="512" viewBox="0 0 512 512" width="512" xmlns="http://www.w3.org/2000/svg"><path d="m341.4 118.14v51.19c0 44.26-35.88 80.14-80.14 80.14h-10.52c-44.26 0-80.14-35.88-80.14-80.14v-51.19c0-2.64.13-5.26.38-7.83h76.02c34.25 0 43-37.31 43-37.31s.04.63.19 1.72c2.77 20.43 20.36 35.59 40.97 35.59h9.86c.25 2.57.38 5.19.38 7.83z" fill="#ffd0c6"/><path d="m296.35 241.4 10 46.74c-16.72 32.44-82.95 32.89-100.28.77l-.42-.77 10-46.74c10.59 5.17 22.5 8.07 35.09 8.07h10.52c12.59 0 24.5-2.9 35.09-8.07z" fill="#ffd0c6"/><path d="m457.41 425.49v76.51h-402.82v-76.51c0-1.08.01-2.15.02-3.22.91-56.05 39.69-104.41 93.95-118.51l57.09-15.62.42.77c17.33 32.12 83.56 31.67 100.28-.77l57.09 15.62c54.26 14.1 93.04 62.46 93.95 118.51.01 1.07.02 2.14.02 3.22z" fill="#b4b1ec"/><path d="m290 73s-8.748 37.31-43 37.31h-82.152c-11.858 0-20.436-11.228-17.428-22.698 7.76-29.59 32.621-77.612 112.251-77.612 0 0 15.52.086 31.615 6.631 7.896 3.211 11.978 11.983 9.538 20.149z" fill="#ffce69"/><path d="m300.373 38.288-10.373 34.712s.042.627.191 1.722c2.771 20.429 20.358 35.588 40.974 35.588h9.642c11.931 0 20.546-11.362 17.383-22.866-4.929-17.925-15.642-42.162-38.744-56.525-7.18-4.463-16.653-.731-19.073 7.369z" fill="#ffce69"/><circle cx="186.553" cy="430.314" fill="#dfecff" r="28.221"/><path d="m172.45 186.52c-3.89 2.45-8.5 3.86-13.43 3.86-14.03 0-25.4-11.37-25.4-25.39s11.37-25.39 25.4-25.39c4.17 0 8.11 1.01 11.58 2.79v26.94c0 5.9.64 11.65 1.85 17.19z" fill="#ffd0c6"/><path d="m377.94 164.99c0 14.02-11.37 25.39-25.39 25.39-4.77 0-9.25-1.32-13.06-3.61 1.25-5.61 1.91-11.45 1.91-17.44v-27.16c3.36-1.65 7.15-2.57 11.15-2.57 14.02 0 25.39 11.37 25.39 25.39z" fill="#ffd0c6"/><path d="m345.21 298.77c-29.96 68.98-149.38 68.08-177.61.81l-.48-.9 38.53-10.54.42.77c17.33 32.12 83.56 31.67 100.28-.77z" fill="#dfecff"/><path d="m467.391 422.323-.002-.215c-.976-60.092-42.653-112.721-101.366-128.009l-51.167-13.999-7.174-33.531c17.636-10.639 31.349-27.146 38.422-46.795 2.117.391 4.272.606 6.446.606 19.514 0 35.39-15.876 35.39-35.39s-15.876-35.39-35.39-35.39c-.384 0-.767.021-1.15.033v-11.386c4.56-1.854 8.596-4.906 11.694-8.971 5.356-7.028 7.083-15.952 4.737-24.483-5.381-19.571-17.229-46.278-43.106-62.366-4.928-3.065-10.693-4.095-16.279-2.999-2.814-5.294-7.431-9.636-13.394-12.061-17.677-7.188-34.614-7.363-35.381-7.367-37.64 0-67.863 10.207-89.833 30.337-19.295 17.68-28.102 39.526-32.091 54.739-2.233 8.515-.436 17.387 4.93 24.341 4.463 5.785 10.842 9.498 17.923 10.565v9.665c-.526-.024-1.053-.047-1.58-.047-19.52 0-35.4 15.875-35.4 35.39s15.88 35.39 35.4 35.39c2.315 0 4.606-.24 6.849-.682 7.064 19.683 20.79 36.218 38.448 46.871l-7.174 33.531-51.166 13.999c-58.712 15.288-100.39 67.917-101.367 128.08l-.001.145c-.01 1.052-.019 2.104-.019 3.167v76.509c0 5.523 4.477 10 10 10h402.82c5.523 0 10-4.477 10-10v-76.51c0-1.062-.009-2.115-.019-3.167zm-163.63-93.516c-14.199 7.606-31.002 11.576-48.659 11.459-17.333-.107-33.779-4.144-47.561-11.673-10.947-5.981-19.722-14.009-25.815-23.541l19.487-5.332c12.844 16.673 35.201 23.21 55.49 23.011 19.851-.188 41.437-6.832 54.052-23.02l19.66 5.379c-6.448 9.66-15.501 17.743-26.654 23.717zm48.789-179.207c8.486 0 15.39 6.904 15.39 15.39s-6.904 15.39-15.39 15.39c-.608 0-1.213-.036-1.812-.106.44-3.627.662-7.29.662-10.944v-19.689c.38-.027.764-.041 1.15-.041zm-38.384-110.188c20.382 12.672 29.947 34.556 34.381 50.684.7 2.544.147 5.206-1.518 7.257-1.574 1.939-4.022 2.957-6.519 2.957h-9.346c-13.332 0-25.372-8.782-29.664-21.116-1.049-3.014-1.032-6.298-.119-9.355l4.356-14.578 4.216-14.108c.369-1.235 1.299-1.751 1.82-1.949.584-.222 1.471-.365 2.393.208zm-155.654 57.787c-1.55-2.008-2.067-4.578-1.419-7.05 3.308-12.615 10.549-30.673 26.257-45.066 18.164-16.644 43.842-25.083 76.242-25.083.138.001 13.945.209 27.926 5.894 3.061 1.245 4.696 4.769 3.724 8.023 0 0-11.073 37.177-11.209 37.652-1.352 4.666-8.952 27.044-30.558 28.647-.031.002-.061.008-.092.01-.768.055-1.554.083-2.357.083-.009 0-.017.001-.026.001h-76.02-6.132c-3.425 0-5.44-1.949-6.336-3.111zm2.743 83.019c-.736.107-1.482.162-2.235.162-8.492 0-15.4-6.904-15.4-15.39s6.908-15.39 15.4-15.39c.532 0 1.059.026 1.58.079v19.651c0 3.635.22 7.279.655 10.888zm20.849 3.562c-.991-4.744-1.504-9.603-1.504-14.45v-49.02h66.4c16.981-.044 31.991-8.453 41.939-22.084 9.592 13.753 25.703 22.127 42.461 22.084v49.02c0 4.917-.527 9.854-1.554 14.663-5.304 24.834-23.783 44.846-47.749 52.317-16.787 4.578-35.427 4.573-52.194 0-24.035-7.493-42.555-27.597-47.799-52.53zm57.195 74.967c10.793 1.357 22.779 1.344 33.569-.023 5.516-.704 10.923-1.901 16.19-3.611l6.688 31.261c-7.213 10.283-20.702 14.769-32.672 15.993-16.072 1.656-36.933-1.696-46.824-15.972l6.693-31.282c5.267 1.711 10.674 2.907 16.19 3.611.055.007.11.016.166.023zm208.111 233.253h-42.125v-33.465c0-5.523-4.477-10-10-10s-10 4.477-10 10v33.465h-253.011v-33.465c0-5.523-4.477-10-10-10s-10 4.477-10 10v33.465h-47.684v-66.51c0-1.001.009-1.992.018-2.983v-.074c.831-51.161 36.387-95.98 86.467-108.994.042-.011.083-.022.124-.033l10.557-2.888c2.333 4.34 5.06 8.458 8.146 12.337-40.985 14.836-61.134 36.477-70.934 52.868-2.834 4.74-1.29 10.88 3.451 13.714 1.607.961 3.376 1.419 5.123 1.419 3.402 0 6.719-1.737 8.592-4.87 16.087-26.904 48.93-40.936 69.972-47.465 3.696 2.772 7.642 5.327 11.847 7.625 34.761 18.991 80.375 18.975 115.252.292 4.469-2.394 8.666-5.074 12.592-8 7.444 1.887 23.561 6.687 39.646 16.14 27.984 16.446 42.173 38.594 42.173 65.828 0 5.523 4.477 10 10 10s10-4.477 10-10c0-34.338-17.995-63.063-52.04-83.071-11.991-7.047-23.914-11.797-33.148-14.851 3.016-3.747 5.702-7.724 8.049-11.903l10.323 2.824c.042.011.083.022.124.033 50.08 13.014 85.636 57.833 86.466 108.923l.001.145c.009.991.018 1.982.018 2.983v66.511z"/><path d="m186.553 392.092c-21.075 0-38.221 17.146-38.221 38.222 0 21.075 17.146 38.221 38.221 38.221s38.221-17.146 38.221-38.221c0-21.076-17.146-38.222-38.221-38.222zm0 56.443c-10.047 0-18.221-8.174-18.221-18.221s8.174-18.222 18.221-18.222 18.221 8.174 18.221 18.222-8.173 18.221-18.221 18.221z"/><path d="m247.213 187.116h18.831c5.523 0 10-4.477 10-10s-4.477-10-10-10h-4.936l3.539-10.567c1.754-5.237-1.07-10.904-6.307-12.658-5.235-1.752-10.904 1.07-12.658 6.307l-7.952 23.743c-1.021 3.05-.513 6.406 1.366 9.017 1.88 2.611 4.901 4.158 8.117 4.158z"/><path d="m103.33 416.58c-1.887-4.531-6.914-7.036-11.662-5.86-5.66 1.402-8.939 7.577-6.974 13.05 1.843 5.133 7.679 7.907 12.823 6.03 5.25-1.915 7.97-8.046 5.813-13.22z"/></svg>