<svg height="512" viewBox="0 0 64 64" width="512" xmlns="http://www.w3.org/2000/svg"><g id="Fill_Outline" data-name="Fill Outline"><g id="Stroke_copy" data-name="Stroke copy"><circle cx="24" cy="24" fill="#aae1f9" r="21"/><g fill="#57b7eb"><path d="m31 35a21 21 0 0 1 -20-27.5 21 21 0 1 0 33 23 20.87 20.87 0 0 1 -13 4.5z"/><path d="m24 16-8.41 6.11 3.21 9.89h10.4l3.21-9.89z"/><path d="m31.63 4.45a20.8 20.8 0 0 0 -15.26 0l7.63 5.55z"/></g><path d="m7.76 10.68a21 21 0 0 0 -4.76 13.32c0 .41 0 .81.06 1.21l7.63-5.54z" fill="#4891d3"/><path d="m44.94 25.21c0-.4.06-.8.06-1.21a21 21 0 0 0 -4.76-13.32l-2.93 9z" fill="#57b7eb"/><path d="m6.33 35.33a21 21 0 0 0 12.36 9l-2.92-9z" fill="#4891d3"/><path d="m41.67 35.33h-9.44l-2.92 9a21 21 0 0 0 12.36-9z" fill="#4891d3"/><path d="m18.4 30.77.4 1.23h1.42c-.63-.38-1.22-.79-1.82-1.23z" fill="#4891d3"/><path d="m19 54h40v4h-40z" fill="#cc5144"/><path d="m43 40a4 4 0 0 1 -4 4h-10a10 10 0 0 0 -10 10h40v-14z" fill="#f89c8d"/><path d="m40 50a12 12 0 0 1 -10.38-6h-.62a10 10 0 0 0 -10 10h40v-4z" fill="#f8664f"/><path d="m54 45h5a0 0 0 0 1 0 0v9a0 0 0 0 1 0 0h-14a0 0 0 0 1 0 0 9 9 0 0 1 9-9z" fill="#f9e109"/><path d="m45 54h14v-4h-13a9 9 0 0 0 -1 4z" fill="#fcbc04"/></g><g id="Outline_copy" fill="#2d72bc" data-name="Outline copy"><path d="m18.44 45.26a1.52 1.52 0 0 1 .2.06 1.07 1.07 0 0 0 .25 0 1 1 0 0 0 1-.76 1 1 0 0 0 -.36-1l-2.61-8 2.49-2.56h3.59a1 1 0 0 0 0-2h-3.47l-2.77-8.51 7.24-5.25 7.07 5.14a1.07 1.07 0 0 0 .13.21l-2.73 8.41h-1.47a1 1 0 0 0 0 2h1.59l2.52 2.53-1.35 4.16a1 1 0 0 0 .64 1.31 1.12 1.12 0 0 0 .31 0 1 1 0 0 0 .95-.69l1.3-4h7.33a1 1 0 0 0 .35.49 1 1 0 0 0 .57.18 1 1 0 0 0 .82-.43c.2-.27.37-.56.55-.84a22 22 0 0 0 -29.23-31 1 1 0 0 0 1 1.75 19.29 19.29 0 0 1 1.89-.91l6.76 4.96v5l-7.66 5.56-3.77-1.88-2.68-8.28a19.66 19.66 0 0 1 2.3-2.26 1 1 0 1 0 -1.29-1.53 22 22 0 0 0 8.44 38.11zm18.91-24.32 6.57 4.77a19.83 19.83 0 0 1 -2.82 8.62h-8.37s0 0 0 0l-2.42-2.41 3-9.33zm6.65 2.33-5.47-4 2.1-6.45a19.91 19.91 0 0 1 3.37 10.45zm-4.9-12.34-2.67 8.22-4.12 1.65-7.31-5.31v-5l6.79-4.93a20 20 0 0 1 7.31 5.37zm-15.1-6.93a19.83 19.83 0 0 1 5.48.78l-5.48 3.98-5.48-4a19.83 19.83 0 0 1 5.48-.76zm-9.18 19 2.89 8.9-2.42 2.41s0 0 0 0h-8.4a20 20 0 0 1 -2.82-8.62l6.57-4.77 3.91 1.95a1 1 0 0 0 .27.13zm-5.31-3.71-5.51 3.99a19.87 19.87 0 0 1 3.41-10.44zm-1.26 17h6.75l2.09 6.42a20 20 0 0 1 -8.84-6.38z"/><path d="m59 57h-39v-3a9 9 0 0 1 9-9h1v2a1 1 0 0 0 2 0v-2h2v2a1 1 0 0 0 2 0v-2h2v2a1 1 0 0 0 2 0v-2.11a5 5 0 0 0 3.9-3.89h5.1a1 1 0 0 0 0-2h-6a1 1 0 0 0 -1 1 3 3 0 0 1 -3 3h-10a11 11 0 0 0 -11 11v4a1 1 0 0 0 1 1h2v2a1 1 0 0 0 2 0v-2h2v2a1 1 0 0 0 2 0v-2h5v2a1 1 0 0 0 2 0v-2h2v2a1 1 0 0 0 2 0v-2h5v2a1 1 0 0 0 2 0v-2h2v2a1 1 0 0 0 2 0v-2h5v2a1 1 0 0 0 2 0v-2h2v2a1 1 0 0 0 2 0v-3a1 1 0 0 0 -1-1z"/><path d="m59 39h-6a1 1 0 0 0 0 2h5v12h-11.93a8 8 0 0 1 7.93-7h1a1 1 0 0 0 0-2h-1a10 10 0 0 0 -10 9h-21a1 1 0 0 0 0 2h36a1 1 0 0 0 1-1v-14a1 1 0 0 0 -1-1z"/></g></g></svg>