<svg height="512" viewBox="0 0 64 64" width="512" xmlns="http://www.w3.org/2000/svg"><path d="m18.44 45.26a1.52 1.52 0 0 1 .2.06 1.07 1.07 0 0 0 .25 0 1 1 0 0 0 1-.76 1 1 0 0 0 -.36-1l-2.61-8 2.49-2.56h3.59a1 1 0 0 0 0-2h-3.47l-2.77-8.51 7.24-5.25 7.07 5.14a1.07 1.07 0 0 0 .13.21l-2.73 8.41h-1.47a1 1 0 0 0 0 2h1.59l2.52 2.53-1.35 4.16a1 1 0 0 0 .64 1.31 1.12 1.12 0 0 0 .31 0 1 1 0 0 0 .95-.69l1.3-4h7.33a1 1 0 0 0 .35.49 1 1 0 0 0 .57.18 1 1 0 0 0 .82-.43c.2-.27.37-.56.55-.84a22 22 0 0 0 -29.23-31 1 1 0 0 0 1 1.75 19.29 19.29 0 0 1 1.89-.91l6.76 4.96v5l-7.66 5.56-3.77-1.88-2.68-8.28a19.66 19.66 0 0 1 2.3-2.26 1 1 0 1 0 -1.29-1.53 22 22 0 0 0 8.44 38.11zm18.91-24.32 6.57 4.77a19.83 19.83 0 0 1 -2.82 8.62h-8.37s0 0 0 0l-2.42-2.41 3-9.33zm6.65 2.33-5.47-4 2.1-6.45a19.91 19.91 0 0 1 3.37 10.45zm-4.9-12.34-2.67 8.22-4.12 1.65-7.31-5.31v-5l6.79-4.93a20 20 0 0 1 7.31 5.37zm-15.1-6.93a19.83 19.83 0 0 1 5.48.78l-5.48 3.98-5.48-4a19.83 19.83 0 0 1 5.48-.76zm-9.18 19 2.89 8.9-2.42 2.41s0 0 0 0h-8.4a20 20 0 0 1 -2.82-8.62l6.57-4.77 3.91 1.95a1 1 0 0 0 .27.13zm-5.31-3.71-5.51 3.99a19.87 19.87 0 0 1 3.41-10.44zm-1.26 17h6.75l2.09 6.42a20 20 0 0 1 -8.84-6.38z"/><path d="m59 57h-39v-3a9 9 0 0 1 9-9h1v2a1 1 0 0 0 2 0v-2h2v2a1 1 0 0 0 2 0v-2h2v2a1 1 0 0 0 2 0v-2.11a5 5 0 0 0 3.9-3.89h5.1a1 1 0 0 0 0-2h-6a1 1 0 0 0 -1 1 3 3 0 0 1 -3 3h-10a11 11 0 0 0 -11 11v4a1 1 0 0 0 1 1h2v2a1 1 0 0 0 2 0v-2h2v2a1 1 0 0 0 2 0v-2h5v2a1 1 0 0 0 2 0v-2h2v2a1 1 0 0 0 2 0v-2h5v2a1 1 0 0 0 2 0v-2h2v2a1 1 0 0 0 2 0v-2h5v2a1 1 0 0 0 2 0v-2h2v2a1 1 0 0 0 2 0v-3a1 1 0 0 0 -1-1z"/><path d="m59 39h-6a1 1 0 0 0 0 2h5v12h-11.93a8 8 0 0 1 7.93-7h1a1 1 0 0 0 0-2h-1a10 10 0 0 0 -10 9h-21a1 1 0 0 0 0 2h36a1 1 0 0 0 1-1v-14a1 1 0 0 0 -1-1z"/></svg>