<?xml version="1.0" encoding="iso-8859-1"?>
<!-- Generator: Adobe Illustrator 16.0.0, SVG Export Plug-In . SVG Version: 6.00 Build 0)  -->
<!DOCTYPE svg PUBLIC "-//W3C//DTD SVG 1.1//EN" "http://www.w3.org/Graphics/SVG/1.1/DTD/svg11.dtd">
<svg version="1.1" id="Capa_1" xmlns="http://www.w3.org/2000/svg" xmlns:xlink="http://www.w3.org/1999/xlink" x="0px" y="0px"
	 width="465.257px" height="465.257px" viewBox="0 0 465.257 465.257" style="enable-background:new 0 0 465.257 465.257;"
	 xml:space="preserve">
<g>
	<g>
		<path d="M433.013,383.903v3.923h32.244v-32.244h-3.924C445.725,355.582,433.013,368.294,433.013,383.903z"/>
		<path d="M32.256,383.903c0-15.609-12.711-28.321-28.322-28.321H0.008v32.244h32.248V383.903z"/>
		<path d="M81.367,300.805V168.856c0-7.536-6.129-13.669-13.666-13.669H0v159.288h67.702
			C75.238,314.475,81.367,308.343,81.367,300.805z M53.928,245.53c0.897,0.705,1.056,2.008,0.347,2.914
			c-0.407,0.513-1.014,0.789-1.631,0.789c-0.446,0-0.896-0.145-1.278-0.453l-8.479-6.692c-1.391,3.006-2.591,6.163-3.446,8.925
			c-0.285,0.89-1.1,1.459-1.978,1.459c-0.207,0-0.419-0.032-0.621-0.093c-1.092-0.353-1.706-1.503-1.357-2.608
			c0.501-1.611,1.906-5.835,4.023-10.335l-6.789-5.366c-0.896-0.708-1.054-2.012-0.345-2.912c0.706-0.894,2.01-1.044,2.91-0.338
			l6.157,4.853c2.897-5.159,6.667-9.782,11.046-10.134c1.112-0.064,2.144,0.759,2.234,1.897c0.096,1.138-0.757,2.136-1.897,2.23
			c-2.567,0.212-5.48,3.925-8.041,8.645L53.928,245.53z"/>
		<path d="M32.256,81.356v-3.926H0v32.248h3.926C19.544,109.679,32.256,96.975,32.256,81.356z"/>
		<path d="M433.013,81.356c0,15.613,12.712,28.322,28.32,28.322h3.924V77.431h-32.244V81.356z"/>
		<path d="M215.061,210.024c0,4.018,3.334,7.284,7.426,7.284c2.667,0,4.913-1.469,6.218-3.557v-7.456
			c-1.312-2.09-3.551-3.564-6.218-3.564C218.395,202.731,215.061,206.003,215.061,210.024z"/>
		<path d="M398.766,231.713c4.104,0,7.413,3.262,7.413,7.285c0,4.028-3.31,7.294-7.413,7.294c-4.1,0-7.418-3.266-7.418-7.294
			C391.348,234.975,394.666,231.713,398.766,231.713z"/>
		<path d="M160.109,113.826c4.094,0,7.416,3.258,7.416,7.284s-3.322,7.288-7.416,7.288c-4.098,0-7.421-3.262-7.421-7.288
			S156.011,113.826,160.109,113.826z"/>
		<path d="M40.106,383.903v3.923h188.598v-54.577l-3.635-0.269c-52.255-3.896-93.185-47.977-93.185-100.348
			c0-52.361,40.93-96.451,93.185-100.352l3.635-0.273V77.431H40.106v3.926c0,19.947-16.226,36.173-36.173,36.173H0.008v29.807H67.71
			c11.868,0,21.516,9.652,21.516,21.52v131.94c0,11.87-9.648,21.528-21.516,21.528H0v25.406h3.926
			C23.873,347.731,40.106,363.954,40.106,383.903z M135.253,340.739c2.896-5.166,6.662-9.782,11.044-10.144
			c1.116-0.067,2.142,0.762,2.238,1.896c0.092,1.15-0.764,2.148-1.902,2.236c-2.564,0.2-5.476,3.911-8.037,8.641l9.161,7.229
			c0.896,0.706,1.054,2.012,0.337,2.914c-0.407,0.524-1.012,0.785-1.625,0.785c-0.449,0-0.894-0.141-1.28-0.444l-8.486-6.701
			c-1.38,3.018-2.581,6.18-3.446,8.937c-0.281,0.891-1.096,1.459-1.978,1.459c-0.204,0-0.415-0.032-0.617-0.092
			c-1.092-0.353-1.707-1.503-1.36-2.609c0.501-1.606,1.916-5.839,4.036-10.347l-6.792-5.362c-0.894-0.709-1.05-2.016-0.345-2.909
			c0.709-0.897,2.012-1.054,2.913-0.341L135.253,340.739z M160.109,109.679c6.374,0,11.56,5.129,11.56,11.431
			c0,6.306-5.186,11.431-11.56,11.431c-6.382,0-11.573-5.125-11.573-11.431C148.543,114.816,153.727,109.679,160.109,109.679z
			 M114.797,118.465c0.706-0.897,2.008-1.042,2.91-0.336l6.155,4.853c2.897-5.16,6.667-9.784,11.042-10.143
			c1.116-0.066,2.14,0.757,2.24,1.897c0.096,1.146-0.76,2.142-1.897,2.23c-2.569,0.21-5.482,3.917-8.051,8.644l9.163,7.221
			c0.896,0.706,1.054,2.01,0.345,2.914c-0.407,0.517-1.012,0.781-1.623,0.781c-0.447,0-0.896-0.138-1.278-0.445l-8.488-6.688
			c-1.385,3.005-2.583,6.167-3.446,8.924c-0.283,0.888-1.1,1.46-1.978,1.46c-0.207,0-0.419-0.032-0.621-0.092
			c-1.092-0.353-1.706-1.503-1.357-2.607c0.501-1.611,1.912-5.843,4.032-10.349l-6.789-5.36
			C114.244,120.669,114.088,119.369,114.797,118.465z"/>
		<path d="M381.693,168.856v112.938c5.687,0.312,11.377,0.621,17.063,0.941c-5.687,2.256-11.381,4.524-17.063,6.776v11.285
			c0,7.546,6.132,13.678,13.662,13.678h69.893V155.187h-69.893C387.825,155.195,381.693,161.329,381.693,168.856z M387.2,238.99
			c0-6.295,5.197-11.421,11.565-11.421c6.371,0,11.569,5.125,11.569,11.421c0,6.304-5.182,11.441-11.569,11.441
			C392.397,250.439,387.2,245.294,387.2,238.99z M426.709,266.958c1.13-0.076,2.148,0.773,2.24,1.903
			c0.092,1.135-0.758,2.145-1.899,2.221c-2.577,0.216-5.49,3.927-8.043,8.664l9.161,7.222c0.89,0.713,1.05,1.995,0.345,2.896
			c-0.405,0.518-1.019,0.806-1.627,0.806c-0.449,0-0.902-0.144-1.278-0.465l-8.496-6.688c-1.387,3.021-2.589,6.164-3.45,8.94
			c-0.272,0.89-1.095,1.451-1.976,1.451c-0.209,0-0.413-0.04-0.63-0.088c-1.09-0.353-1.703-1.507-1.351-2.605
			c0.501-1.61,1.912-5.858,4.02-10.354l-6.784-5.362c-0.897-0.705-1.05-2.023-0.345-2.913c0.709-0.895,2.016-1.042,2.913-0.337
			l6.147,4.845C418.57,271.943,422.333,267.327,426.709,266.958z M411.525,171.942c1.126-0.072,2.136,0.763,2.235,1.897
			c0.093,1.142-0.757,2.146-1.899,2.238c-2.576,0.207-5.49,3.917-8.043,8.636l9.153,7.229c0.89,0.709,1.042,2.012,0.337,2.913
			c-0.405,0.517-1.01,0.793-1.623,0.793c-0.453,0-0.906-0.148-1.291-0.449l-8.476-6.696c-1.398,3.018-2.593,6.163-3.45,8.929
			c-0.284,0.885-1.106,1.458-1.979,1.458c-0.2,0-0.413-0.03-0.621-0.094c-1.095-0.347-1.699-1.499-1.354-2.599
			c0.505-1.599,1.915-5.847,4.023-10.347l-6.785-5.362c-0.905-0.706-1.058-2.008-0.353-2.914c0.722-0.894,2.024-1.05,2.913-0.345
			l6.147,4.853C403.374,176.917,407.129,172.303,411.525,171.942z"/>
		<path d="M228.704,139.778l-4.27,0.375c-47.498,4.178-84.691,44.803-84.691,92.479c0,47.683,37.205,88.298,84.691,92.469
			l4.27,0.381v-81.659c-2.765-0.629-5.504-1.334-8.228-2.104l0.211-0.802c2.661,0.529,5.34,0.978,8.017,1.362v-22.658
			c-1.799,1.15-3.925,1.833-6.218,1.833c-6.384,0-11.573-5.13-11.573-11.432c0-6.306,5.189-11.431,11.573-11.431
			c2.292,0,4.418,0.683,6.218,1.829V139.778z M212.823,224.728c1.116-0.064,2.134,0.759,2.238,1.897
			c0.092,1.146-0.763,2.136-1.901,2.232c-2.566,0.21-5.48,3.925-8.037,8.646l9.161,7.221c0.894,0.706,1.05,2.012,0.337,2.914
			c-0.411,0.521-1.012,0.789-1.625,0.789c-0.449,0-0.898-0.145-1.28-0.453l-8.486-6.692c-1.381,3.014-2.585,6.172-3.447,8.933
			c-0.284,0.89-1.1,1.459-1.978,1.459c-0.204,0-0.415-0.032-0.621-0.092c-1.09-0.353-1.703-1.495-1.358-2.609
			c0.511-1.61,1.917-5.843,4.038-10.343l-6.792-5.36c-0.894-0.705-1.05-2.01-0.345-2.913c0.705-0.894,2.008-1.044,2.913-0.339
			l6.151,4.849C204.666,229.705,208.44,225.089,212.823,224.728z"/>
		<path d="M354.571,248.42c4.1,0,7.418,3.266,7.418,7.294c0,4.023-3.318,7.289-7.418,7.289c-4.104,0-7.43-3.266-7.43-7.289
			C347.142,251.686,350.468,248.42,354.571,248.42z"/>
		<path d="M336.378,203.455c0-4.021-3.326-7.288-7.43-7.288c-0.834,0-1.607,0.218-2.36,0.473c1.73,4.442,3.081,9.041,4.171,13.746
			C333.961,209.568,336.378,206.843,336.378,203.455z"/>
		<path d="M425.162,81.356v-3.926H236.553v54.577l3.635,0.273c38.171,2.851,70.226,27.196,84.761,60.494
			c1.246-0.458,2.589-0.743,4-0.743c6.371,0,11.569,5.125,11.569,11.431c0,5.374-3.795,9.858-8.856,11.075
			c0.846,4.603,1.314,9.309,1.503,14.086c2.717-1.166,5.445-2.326,8.119-3.595l-8.104-3.258l0.168-0.465l20.234-5.466
			c6.331-2.871,12.655-5.739,18.982-8.602c-4.54,5.26-9.076,10.52-13.625,15.777l-10.965,17.848l-0.444,0.084l-0.978-9.893
			c-4.305,2.637-8.805,4.947-13.449,6.927c-2.681,49.984-42.471,91.229-92.916,95l-3.635,0.269v54.577h188.594v-3.923
			c0-19.949,16.229-36.172,36.179-36.172h3.923v-25.406h-69.893c-11.866,0-21.513-9.65-21.513-21.521v-7.129l-12.804,7.658
			l-0.444-0.16l3.694-9.169c-2.376,0.236-4.713,0.452-6.98,0.597l-0.269-8.11c1.947,0.031,3.803,0.016,5.671,0l-5.947-6.945
			l0.353-0.32l16.711,3.679V168.856c0-11.86,9.653-21.52,21.528-21.52h69.885v-29.807h-3.923
			C441.385,117.529,425.162,101.303,425.162,81.356z M340.71,292.281c-2.813-0.261-5.635-0.513-8.432-0.922
			c-2.838-0.421-5.614-0.882-8.296-1.419l1.042-7.373c2.773,0.292,5.482,0.537,8.14,0.737c2.7,0.168,5.397,0.381,8.091,0.505
			L340.71,292.281z M354.571,267.126c-6.38,0-11.577-5.121-11.577-11.421c0-6.287,5.197-11.425,11.577-11.425
			c6.376,0,11.562,5.138,11.562,11.425C366.133,262.005,360.947,267.126,354.571,267.126z"/>
		<path d="M236.553,252.752v72.73l4.271-0.381c44.703-3.927,80.257-40.142,84.293-84.147c-1.059,0.337-2.088,0.713-3.146,1.014
			c-11.152,3.098-22.506,5.121-33.898,6.071c-11.409,0.905-22.847,0.905-34.155-0.216c-5.819-0.582-11.613-1.379-17.364-2.421v5.947
			c3.551,2.239,7.178,4.384,10.872,6.363l-1.05,1.796C243.032,257.376,239.759,255.12,236.553,252.752z M293.069,276.111
			c5.346,1.534,10.52,2.793,15.901,3.911l-1.467,6.211c-5.374-1.41-10.859-3.105-16.029-4.908L293.069,276.111z M262.252,264.902
			c5.037,2.224,10.135,4.231,15.248,6.136l-1.662,4.172c-5.122-2.196-10.144-4.665-15.053-7.302L262.252,264.902z"/>
		<path d="M240.824,140.153l-4.271-0.375V243.23c5.851,0.577,11.722,0.913,17.572,1.021c11.169,0.137,22.317-0.368,33.286-1.995
			c10.964-1.588,21.76-4.168,32.015-8.087c2.024-0.757,4.036-1.583,6.052-2.384c-0.057-6.436-0.854-12.726-2.2-18.825
			c-3.467-1.978-5.843-5.638-5.843-9.87c0-1.819,0.473-3.515,1.242-5.047C305.873,166.624,276.218,143.273,240.824,140.153z
			 M307.159,218.551c0.89,0.711,1.05,2.016,0.345,2.911c-0.404,0.511-1.01,0.792-1.631,0.792c-0.461,0-0.905-0.146-1.278-0.445
			l-8.487-6.696c-1.387,3.011-2.594,6.159-3.451,8.935c-0.276,0.885-1.098,1.448-1.979,1.448c-0.196,0-0.413-0.03-0.613-0.092
			c-1.094-0.345-1.699-1.507-1.362-2.599c0.505-1.609,1.932-5.857,4.039-10.353l-6.792-5.362c-0.897-0.713-1.05-2.01-0.345-2.914
			c0.713-0.897,2.016-1.052,2.913-0.347l6.147,4.853c2.897-5.158,6.669-9.782,11.057-10.135c1.118-0.088,2.136,0.751,2.236,1.892
			c0.092,1.138-0.766,2.142-1.899,2.238c-2.577,0.21-5.49,3.925-8.051,8.644L307.159,218.551z"/>
	</g>
</g>
<g>
</g>
<g>
</g>
<g>
</g>
<g>
</g>
<g>
</g>
<g>
</g>
<g>
</g>
<g>
</g>
<g>
</g>
<g>
</g>
<g>
</g>
<g>
</g>
<g>
</g>
<g>
</g>
<g>
</g>
</svg>
