<svg height="511pt" viewBox="0 0 511.9876 511" width="511pt" xmlns="http://www.w3.org/2000/svg"><g fill="#4482c3"><path d="m503.308594 26.421875h-8.675782c-4.792968 0-8.679687 3.882813-8.679687 8.675781 0 4.792969 3.886719 8.679688 8.679687 8.679688h8.675782c4.792968 0 8.679687-3.886719 8.679687-8.679688 0-4.792968-3.886719-8.675781-8.679687-8.675781zm0 0"/><path d="m459.917969 26.421875h-74.507813l11.222656-11.222656c3.289063-3.402344 3.242188-8.816407-.105468-12.164063s-8.761719-3.394531-12.167969-.105468l-26.03125 26.035156c-1.632813 1.625-2.550781 3.835937-2.550781 6.144531 0 2.304687.917968 4.515625 2.550781 6.140625l26.03125 26.035156c3.40625 3.289063 8.820313 3.242188 12.167969-.105468 3.347656-3.347657 3.394531-8.757813.105468-12.164063l-11.222656-11.238281h74.507813c4.792969 0 8.679687-3.886719 8.679687-8.679688 0-4.792968-3.886718-8.675781-8.679687-8.675781zm0 0"/><path d="m295.039062 26.421875h-8.679687c-4.792969 0-8.675781 3.882813-8.675781 8.675781 0 4.792969 3.882812 8.679688 8.675781 8.679688h8.679687c4.792969 0 8.675782-3.886719 8.675782-8.679688 0-4.792968-3.882813-8.675781-8.675782-8.675781zm0 0"/><path d="m251.648438 26.421875h-74.507813l11.21875-11.222656c3.289063-3.402344 3.242187-8.816407-.105469-12.164063s-8.757812-3.394531-12.164062-.105468l-26.035156 26.035156c-1.632813 1.625-2.546876 3.835937-2.546876 6.144531 0 2.304687.914063 4.515625 2.546876 6.140625l26.035156 26.035156c3.40625 3.289063 8.816406 3.242188 12.164062-.105468 3.347656-3.347657 3.394532-8.757813.105469-12.164063l-11.21875-11.238281h74.507813c4.792968 0 8.679687-3.886719 8.679687-8.679688 0-4.792968-3.886719-8.675781-8.679687-8.675781zm0 0"/></g><path d="m414.984375 512.386719h-178.503906c-7.757813-.007813-15.109375-3.476563-20.046875-9.457031-9.804688-12.0625-27.597656-32.023438-41.394532-37.316407l-59.445312-22.910156c-14.367188-5.492187-27.007812-14.71875-36.621094-26.726563l-35.75-44.691406c-12.316406-15.394531-19.019531-34.523437-19.007812-54.238281v-37.578125c0-14.375 11.65625-26.03125 26.035156-26.03125s26.035156 11.65625 26.035156 26.03125v25.773438c.011719 10.25 4.554688 19.972656 12.410156 26.554687l47.640626 20.394531c1.074218.4375 2.222656.671875 3.382812.695313 4 .023437 7.484375-2.710938 8.417969-6.597657 3.988281-15.8125 1.121093-32.574218-7.894531-46.164062l-135.203126-204.195312c-9.25-13.992188-5.40625-32.835938 8.589844-42.085938s32.839844-5.402344 42.089844 8.589844l47.292969 68.992187c-6.800781-14.449219-1.253907-31.691406 12.695312-39.464843 13.945313-7.773438 31.53125-3.421876 40.242188 9.957031l27.160156 41.136719.261719-.175782c-9.25-13.996094-5.402344-32.835937 8.589844-42.085937 13.996093-9.25 32.839843-5.40625 42.089843 8.589843l25.078125 37.921876c-6.519531-14.429688-.855468-31.449219 13.011719-39.097657 13.867187-7.648437 31.28125-3.359375 40.011719 9.851563l41.652344 63.003906c12.660156 19.160156 20.355468 41.167969 22.390624 64.042969l8.417969 92.679687.085938.089844 2.863281 32.28125c.777344 8.023438 2.4375 15.941406 4.945312 23.601562l38.53125 94.765626c2.164063 5.34375 1.53125 11.414062-1.6875 16.195312-3.21875 4.785156-8.601562 7.65625-14.367187 7.667969zm0 0" fill="#fdd7ad"/><path d="m327.945312 486.351562h-69.421874c-4.792969 0-8.679688-3.882812-8.679688-8.675781s3.886719-8.679687 8.679688-8.679687h69.421874c4.792969 0 8.679688 3.886718 8.679688 8.679687s-3.886719 8.675781-8.679688 8.675781zm0 0" fill="#fee7ce"/><path d="m380.011719 486.351562h-17.355469c-4.792969 0-8.675781-3.882812-8.675781-8.675781s3.882812-8.679687 8.675781-8.679687h17.355469c4.792969 0 8.679687 3.886718 8.679687 8.679687s-3.886718 8.675781-8.679687 8.675781zm0 0" fill="#fee7ce"/><path d="m186.058594 241.894531c-1.394532.980469-3.066406 1.496094-4.769532 1.476563-2.90625-.015625-5.609374-1.480469-7.203124-3.90625l-28.726563-43.660156-22.65625-34.449219c-8.609375-13.078125-22.667969-26.972657-22.382813-43.554688.226563-9.886719 5.285157-19.03125 13.539063-24.472656.695313-.433594 1.476563-.867187 2.171875-1.214844-1.738281.867188-2.769531 7.105469-3.089844 8.851563-.621094 3.296875-.691406 6.667968-.21875 9.988281 1.96875 7.410156 5.550782 14.289063 10.492188 20.148437l8.632812 13.070313 21.695313 32.863281 33.890625 51.3125 1.039062 1.570313c1.285156 1.902343 1.753906 4.242187 1.300782 6.496093-.453126 2.25-1.789063 4.222657-3.714844 5.480469zm0 0" fill="#cbb292"/><path d="m292.367188 184.621094c-4.078126 2.519531-9.425782 1.277344-11.976563-2.777344l-13.070313-21.226562c-2.601562-4.261719-5.542968-8.339844-7.808593-12.792969-2.207031-4.4375-3.230469-9.367188-2.96875-14.316407.183593-5.027343 1.648437-9.925781 4.253906-14.234374 2.316406-3.925782 5.488281-7.277344 9.285156-9.804688.710938-.496094 1.464844-.933594 2.253907-1.300781-.675782.304687-1.414063 2.914062-1.683594 3.601562-.527344 1.367188-.960938 2.769531-1.292969 4.199219-.660156 2.867188-.894531 5.820312-.691406 8.757812.902343 6.515626 3.496093 12.679688 7.523437 17.882813l8.761719 13.886719 10.207031 16.148437c2.511719 4.082031 1.261719 9.425781-2.792968 11.976563zm0 0" fill="#cbb292"/><path d="m233.789062 207.355469c-4.078124 2.519531-9.421874 1.28125-11.976562-2.777344l-38.71875-61.523437c-1.9375-3.074219-3.265625-6.492188-3.90625-10.066407-1.769531-7.386719-.6875-15.164062 3.039062-21.785156 2.382813-4.179687 5.710938-7.746094 9.71875-10.410156.691407-.4375 1.472657-.871094 2.167969-1.214844-.804687.398437-1.570312 3.3125-1.867187 4.144531-1.707032 4.695313-2.210938 9.738282-1.472656 14.675782 1.710937 6.898437 4.851562 13.363281 9.214843 18.96875 2.316407 3.734374 4.65625 7.460937 7.03125 11.1875l16.921875 26.839843 11.722656 18.589844.867188 1.398437c2.519531 4.066407 1.296875 9.40625-2.742188 11.972657zm0 0" fill="#cbb292"/></svg>