<svg height="480pt" viewBox="-40 0 480 480" width="480pt" xmlns="http://www.w3.org/2000/svg"><path d="m87.761719 272c-8.570313.394531-16.914063-2.835938-22.980469-8.902344s-9.296875-14.40625-8.902344-22.976562c0-4.417969-3.582031-8-8-8-4.417968 0-8 3.582031-8 8 .398438 8.570312-2.835937 16.910156-8.902344 22.976562-6.066406 6.066406-14.40625 9.296875-22.976562 8.902344-4.417969 0-8 3.582031-8 8s3.582031 8 8 8c8.570312-.394531 16.910156 2.835938 22.976562 8.902344 6.066407 6.066406 9.300782 14.40625 8.902344 22.976562 0 4.417969 3.582032 8 8 8 4.417969 0 8-3.582031 8-8-.394531-8.570312 2.835938-16.910156 8.902344-22.976562s14.410156-9.296875 22.980469-8.902344c4.417969 0 8-3.582031 8-8s-3.582031-8-8-8zm-39.882813 20.289062c-3.246094-4.867187-7.421875-9.042968-12.285156-12.289062 4.863281-3.246094 9.039062-7.421875 12.285156-12.289062 3.246094 4.867187 7.421875 9.042968 12.289063 12.289062-4.867188 3.246094-9.042969 7.421875-12.289063 12.289062zm0 0"/><path d="m391.761719 328c-8.570313.394531-16.914063-2.835938-22.980469-8.902344s-9.296875-14.40625-8.902344-22.976562c0-4.417969-3.582031-8-8-8-4.417968 0-8 3.582031-8 8 .398438 8.570312-2.835937 16.910156-8.902344 22.976562-6.066406 6.066406-14.40625 9.296875-22.976562 8.902344-4.417969 0-8 3.582031-8 8s3.582031 8 8 8c8.570312-.394531 16.910156 2.835938 22.976562 8.902344 6.066407 6.066406 9.300782 14.40625 8.902344 22.976562 0 4.417969 3.582032 8 8 8 4.417969 0 8-3.582031 8-8-.394531-8.570312 2.835938-16.910156 8.902344-22.976562s14.410156-9.296875 22.980469-8.902344c4.417969 0 8-3.582031 8-8s-3.582031-8-8-8zm-39.882813 20.289062c-3.246094-4.867187-7.421875-9.042968-12.285156-12.289062 4.863281-3.246094 9.039062-7.421875 12.285156-12.289062 3.246094 4.867187 7.421875 9.042968 12.289063 12.289062-4.867188 3.246094-9.042969 7.421875-12.289063 12.289062zm0 0"/><path d="m279.878906 432c4.417969 0 8-3.582031 8-8-.039062-13.238281-10.761718-23.960938-24-24h-96c-13.238281.039062-23.960937 10.761719-24 24 0 4.417969 3.582032 8 8 8zm0 0"/><path d="m295.878906 448h-160c-13.238281.039062-23.960937 10.761719-24 24 0 4.417969 3.582032 8 8 8h192c4.417969 0 8-3.582031 8-8-.039062-13.238281-10.761718-23.960938-24-24zm0 0"/><path d="m185.113281 141.910156-29.320312-11.726562c-7.605469 20.621094-3.972657 43.710937 9.597656 61l25.640625-25.597656zm0 0"/><path d="m268.679688 115.871094c-10.347657-15.085938-26.648438-25.027344-44.800782-27.320313v27.203125l16.9375 11.285156zm0 0"/><path d="m207.878906 115.71875v-27.199219c-18.148437 2.292969-34.453125 12.234375-44.800781 27.320313l27.84375 11.136718zm0 0"/><path d="m240.734375 165.542969 25.601563 25.601562c13.570312-17.289062 17.203124-40.378906 9.601562-61l-29.320312 11.726563zm0 0"/><path d="m203.191406 176-26.511718 26.496094c23.027343 18.023437 55.375 18.023437 78.398437 0l-26.511719-26.496094zm0 0"/><path d="m351.878906 8c0-4.417969-3.582031-8-8-8h-256c-4.417968 0-8 3.582031-8 8v24h272zm0 0"/><path d="m367.878906 32h-16v16h16c8.835938 0 16 7.164062 16 16v56c-.019531 19-13.386718 35.375-32 39.199219v-111.199219h-272v111.199219c-18.613281-3.824219-31.976562-20.199219-32-39.199219v-56c0-8.835938 7.164063-16 16-16h16v-16h-16c-17.671875 0-32 14.328125-32 32v56c.054688 27.804688 20.484375 51.367188 48 55.359375v.320313c0 34.242187 29.359375 63.199218 56.640625 75.601562.082031 0 .242188.078125.320313.078125 23.753906 11.003906 38.980468 34.78125 39.039062 60.960937v71.679688h80v-71.679688c.058594-26.179687 15.285156-49.957031 39.042969-60.960937.109375.011719.222656-.015625.316406-.078125 27.28125-12.402344 56.640625-41.359375 56.640625-75.601562v-.320313c27.519532-3.992187 47.949219-27.554687 48-55.359375v-56c0-17.671875-14.324218-32-32-32zm-152 200c-44.183594 0-80-35.816406-80-80s35.816406-80 80-80 80 35.816406 80 80c-.046875 44.164062-35.835937 79.953125-80 80zm0 0"/></svg>