<svg height="480pt" viewBox="-40 0 480 480" width="480pt" xmlns="http://www.w3.org/2000/svg"><path d="m87.761719 272c-8.570313.394531-16.914063-2.835938-22.980469-8.902344s-9.296875-14.40625-8.902344-22.976562c0-4.417969-3.582031-8-8-8-4.417968 0-8 3.582031-8 8 .398438 8.570312-2.835937 16.910156-8.902344 22.976562-6.066406 6.066406-14.40625 9.296875-22.976562 8.902344-4.417969 0-8 3.582031-8 8s3.582031 8 8 8c8.570312-.394531 16.910156 2.835938 22.976562 8.902344 6.066407 6.066406 9.300782 14.40625 8.902344 22.976562 0 4.417969 3.582032 8 8 8 4.417969 0 8-3.582031 8-8-.394531-8.570312 2.835938-16.910156 8.902344-22.976562s14.410156-9.296875 22.980469-8.902344c4.417969 0 8-3.582031 8-8s-3.582031-8-8-8zm-27.59375 8c-4.867188 3.246094-9.042969 7.421875-12.289063 12.289062-3.246094-4.867187-7.421875-9.042968-12.285156-12.289062 4.863281-3.246094 9.039062-7.421875 12.285156-12.289062 3.246094 4.867187 7.421875 9.042968 12.289063 12.289062zm0 0"/><path d="m391.761719 328c-8.570313.394531-16.914063-2.835938-22.980469-8.902344s-9.296875-14.40625-8.902344-22.976562c0-4.417969-3.582031-8-8-8-4.417968 0-8 3.582031-8 8 .398438 8.570312-2.835937 16.910156-8.902344 22.976562-6.066406 6.066406-14.40625 9.296875-22.976562 8.902344-4.417969 0-8 3.582031-8 8s3.582031 8 8 8c8.570312-.394531 16.910156 2.835938 22.976562 8.902344 6.066407 6.066406 9.300782 14.40625 8.902344 22.976562 0 4.417969 3.582032 8 8 8 4.417969 0 8-3.582031 8-8-.394531-8.570312 2.835938-16.910156 8.902344-22.976562s14.410156-9.296875 22.980469-8.902344c4.417969 0 8-3.582031 8-8s-3.582031-8-8-8zm-27.59375 8c-4.867188 3.246094-9.042969 7.421875-12.289063 12.289062-3.246094-4.867187-7.421875-9.042968-12.285156-12.289062 4.863281-3.246094 9.039062-7.421875 12.285156-12.289062 3.246094 4.867187 7.421875 9.042968 12.289063 12.289062zm0 0"/><path d="m367.878906 32h-16v-24c0-4.417969-3.582031-8-8-8h-256c-4.417968 0-8 3.582031-8 8v24h-16c-17.671875 0-32 14.328125-32 32v56c.054688 27.804688 20.484375 51.367188 48 55.359375v.320313c0 34.230468 29.378906 63.199218 56.671875 75.601562l.257813.109375c23.78125 10.960937 39.03125 34.742187 39.070312 60.929687v87.679688h-8c-13.253906 0-24 10.746094-24 24v8h-8c-13.253906 0-24 10.746094-24 24v16c0 4.417969 3.582032 8 8 8h192c4.417969 0 8-3.582031 8-8v-16c0-13.253906-10.742187-24-24-24h-8v-8c0-13.253906-10.742187-24-24-24h-8v-87.679688c.039063-26.1875 15.285156-49.964843 39.066406-60.929687l.261719-.109375c27.296875-12.417969 56.671875-41.371094 56.671875-75.601562v-.320313c27.519532-3.992187 47.949219-27.554687 48-55.359375v-56c0-17.671875-14.324218-32-32-32zm-272-16h240v16h-240zm-48 104v-56c0-8.835938 7.164063-16 16-16h16v111.199219c-18.613281-3.824219-31.976562-20.199219-32-39.199219zm256 336v8h-176v-8c0-4.417969 3.582032-8 8-8h160c4.417969 0 8 3.582031 8 8zm-40-40c4.417969 0 8 3.582031 8 8v8h-112v-8c0-4.417969 3.582032-8 8-8zm72-240.320312c0 27.0625-24.34375 50.511718-47.054687 60.929687l-.273438.109375c-29.613281 13.511719-48.632812 43.050781-48.671875 75.601562v87.679688h-48v-87.679688c-.035156-32.550781-19.054687-62.089843-48.671875-75.601562l-.253906-.109375c-22.722656-10.417969-47.074219-33.867187-47.074219-60.929687v-127.679688h240zm48-55.679688c-.019531 19-13.386718 35.375-32 39.199219v-111.199219h16c8.835938 0 16 7.164062 16 16zm0 0"/><path d="m215.878906 72c-44.183594 0-80 35.816406-80 80s35.816406 80 80 80 80-35.816406 80-80c-.046875-44.164062-35.835937-79.953125-80-80zm52.800782 43.871094-27.839844 11.136718-16.960938-11.289062v-27.199219c18.15625 2.300781 34.460938 12.253907 44.800782 27.351563zm-67.648438 23.65625 14.847656-9.925782 14.875 9.910157-5.121094 20.488281h-19.503906zm6.847656-50.976563v27.203125l-16.933594 11.285156-27.867187-11.167968c10.347656-15.085938 26.652344-25.027344 44.800781-27.320313zm-56 63.449219c.015625-7.445312 1.339844-14.828125 3.914063-21.816406l29.320312 11.726562 5.910157 23.632813-25.640626 25.601562c-8.738281-11.179687-13.492187-24.957031-13.503906-39.144531zm24.800782 50.496094 26.511718-26.496094h25.375l26.511719 26.496094c-23.023437 18.023437-55.371094 18.023437-78.398437 0zm89.695312-11.296875-25.597656-25.597657 5.910156-23.632812 29.320312-11.730469c7.605469 20.625 3.96875 43.710938-9.601562 61zm0 0"/></svg>