<svg height="512" viewBox="0 0 64 64" width="512" xmlns="http://www.w3.org/2000/svg"><path d="m28 25v6h-5v15h-16v-15h-5v-6h10a3 3 0 0 0 6 0z" fill="#ed1c24"/><path d="m62 25v6h-5v15h-16v-15h-5v-6h10a3 3 0 0 0 6 0z" fill="#ffde17"/><path d="m28 24h-10a1 1 0 0 0 -1 1 2 2 0 0 1 -4 0 1 1 0 0 0 -1-1h-10a1 1 0 0 0 -1 1v6a1 1 0 0 0 1 1h4v14a1 1 0 0 0 1 1h16a1 1 0 0 0 1-1v-14h4a1 1 0 0 0 1-1v-6a1 1 0 0 0 -1-1zm-1 6h-4a1 1 0 0 0 -1 1v14h-14v-14a1 1 0 0 0 -1-1h-4v-4h8.127a4 4 0 0 0 7.746 0h8.127z"/><path d="m16 32h-6a1 1 0 0 0 0 2h6a1 1 0 0 0 0-2z"/><path d="m18 33a1 1 0 0 0 1 1h1a1 1 0 0 0 0-2h-1a1 1 0 0 0 -1 1z"/><path d="m62 24h-10a1 1 0 0 0 -1 1 2 2 0 0 1 -4 0 1 1 0 0 0 -1-1h-10a1 1 0 0 0 -1 1v6a1 1 0 0 0 1 1h4v14a1 1 0 0 0 1 1h16a1 1 0 0 0 1-1v-14h4a1 1 0 0 0 1-1v-6a1 1 0 0 0 -1-1zm-1 6h-4a1 1 0 0 0 -1 1v14h-14v-14a1 1 0 0 0 -1-1h-4v-4h8.127a4 4 0 0 0 7.746 0h8.127z"/><path d="m50 32h-6a1 1 0 0 0 0 2h6a1 1 0 0 0 0-2z"/><path d="m52 33a1 1 0 0 0 1 1h1a1 1 0 0 0 0-2h-1a1 1 0 0 0 -1 1z"/><path d="m31.316 13.051a1 1 0 0 0 -1.264.633l-1.052 3.154-1.052-3.154a1 1 0 1 0 -1.9.632l2 6a1 1 0 0 0 1.9 0l2-6a1 1 0 0 0 -.632-1.265z"/><path d="m38 20v-3a1 1 0 0 0 -1-1h-2v-1h2a1 1 0 0 0 0-2h-3a1 1 0 0 0 -1 1v3a1 1 0 0 0 1 1h2v1h-2a1 1 0 0 0 0 2h3a1 1 0 0 0 1-1z"/></svg>