<svg height="512pt" viewBox="0 -121 512 512" width="512pt" xmlns="http://www.w3.org/2000/svg"><g fill="#002b8a"><path d="m51.996094 227.984375h30.007812v42.683594h-30.007812zm0 0"/><path d="m112.019531 227.984375h30.011719v42.683594h-30.011719zm0 0"/><path d="m226.070312 227.984375h30.011719v42.683594h-30.011719zm0 0"/><path d="m286.097656 227.984375h30.007813v42.683594h-30.007813zm0 0"/></g><path d="m286.097656 227.984375h30.007813v42.683594h-30.007813zm0 0" fill="#000a3e"/><path d="m362.128906 227.984375h30.011719v42.683594h-30.011719zm0 0" fill="#002b8a"/><path d="m362.128906 227.984375h30.011719v42.683594h-30.011719zm0 0" fill="#000a3e"/><path d="m422.15625 227.984375h30.011719v42.683594h-30.011719zm0 0" fill="#002b8a"/><path d="m422.15625 227.984375h30.011719v42.683594h-30.011719zm0 0" fill="#000a3e"/><path d="m422.816406 70.996094-204.601562-56.207032-5.105469 2.511719c-14.667969 7.207031-34.886719 11.179688-56.929687 11.179688-34.175782 0-66.96875-9.488281-87.722657-25.386719l-4.035156-3.09375h-5.089844c-32.714843 0-59.332031 26.617188-59.332031 59.332031v128.636719h512c-.007812-54.449219-36.679688-102.546875-89.183594-116.972656zm0 0" fill="#fffa17"/><path d="m422.816406 70.996094-166.871094-45.839844v162.8125h256.054688c-.007812-54.449219-36.679688-102.546875-89.183594-116.972656zm0 0" fill="#f3e600"/><path d="m0 167.957031v75.035157h512v-55.007813c0-6.789063-.570312-13.484375-1.671875-20.027344zm0 0" fill="#f0dfda"/><path d="m512 187.984375c0-6.789063-.570312-13.484375-1.671875-20.027344h-254.382813v75.035157h256.054688zm0 0" fill="#e6d2cb"/><path d="m283.234375 152.953125 94.355469-94.378906-33.292969-9.148438-103.5 103.527344h-42.613281l112.683594-112.710937-33.292969-9.144532-121.832031 121.855469h-155.742188v30.011719h511.894531c-.429687-10.332032-2.183593-20.398438-5.101562-30.011719zm0 0" fill="#002b8a"/><path d="m310.867188 40.242188-33.292969-9.144532-21.628907 21.632813v42.445312zm0 0" fill="#000a3e"/><path d="m506.792969 152.953125h-223.558594l94.355469-94.378906-33.292969-9.148438-88.351563 88.371094v45.167969h255.945313c-.425781-10.332032-2.179687-20.398438-5.097656-30.011719zm0 0" fill="#000a3e"/></svg>