<svg height="512pt" viewBox="0 -121 512.001 512" width="512pt" xmlns="http://www.w3.org/2000/svg"><path d="m512 187.984375c0-54.453125-36.671875-102.5625-89.183594-116.988281l-204.601562-56.203125-5.105469 2.507812c-14.667969 7.207031-34.886719 11.179688-56.925781 11.179688-34.179688 0-66.972656-9.488281-87.722656-25.386719l-4.039063-3.09375h-5.089844c-32.714843 0-59.332031 26.617188-59.332031 59.332031v183.660157h51.996094v27.675781h30.007812v-27.675781h30.015625v27.675781h30.011719v-27.675781h84.039062v27.675781h30.011719v-27.675781h30.015625v27.675781h30.011719v-27.675781h46.019531v27.675781h30.011719v-27.675781h30.015625v27.675781h30.011719v-27.675781h59.832031zm-37.054688-35.03125h-191.710937l69.945313-69.964844 61.6875 16.949219c27.664062 7.597656 49.472656 27.628906 60.078124 53.015625zm-276.761718 0 88.273437-88.292969 33.429688 9.183594-79.09375 79.109375zm-143.265625-122.609375c26 17.945312 62.507812 28.148438 101.261719 28.148438 24.085937 0 46.835937-4.171876 64.820312-11.8125l32.164062 8.835937-97.421874 97.4375h-125.730469v-93.621094c0-14.667969 10.824219-26.855469 24.90625-28.988281zm427.070312 182.636719h-451.976562v-30.015625h451.820312zm0 0"/></svg>